# xmcd CD Database Entry
#
# Track frame offsets:
# 182
# 12402
# 25155
# 35547
# 43155
# 51792
# 72862
# 84825
# 95712
# 107280
# 117867
# 126320
#
# Disc length: 1908 seconds
#
# Revision: 1
# Processed by: cddbd v1.4b41PL1 Copyright (c) Steve Scherf et al.
# Submitted via: tcd 2.0b
#
DISCID=9707720c
DTITLE=Fats Domino - Live at Galley's
DYEAR=1900
DGENRE=
TTITLE0=Blueberry Hill
TTITLE1=I'm Walking'
TTITLE2=I'm Gonna be a Wheel Someday
TTITLE3=I'm in Love Again
TTITLE4=My Girl Josephine
TTITLE5=Jambalaya (On the Bayou)
TTITLE6=Blue Monday
TTITLE7=Walking to New Orleans
TTITLE8=Ain't That a Shame
TTITLE9=The Fat Man
TTITLE10=(Don't Mess With My) Toot-Toot
TTITLE11=Shake, Rattle and Roll
EXTD=
EXTT0=
EXTT1=
EXTT2=
EXTT3=
EXTT4=
EXTT5=
EXTT6=
EXTT7=
EXTT8=
EXTT9=
EXTT10=
EXTT11=
PLAYORDER=
